<?xml version="1.0" encoding="utf-8"?><!-- Uploaded to: SVG Repo, www.svgrepo.com, Generator: SVG Repo Mixer Tools -->
<svg width="800px" height="800px" viewBox="0 0 24 24" fill="none" xmlns="http://www.w3.org/2000/svg">
<path d="M8 15.9998C7.44772 15.9998 7 16.4475 7 16.9998C7 17.5521 7.44772 17.9998 8 17.9998C8.55228 17.9998 9 17.5521 9 16.9998C9 16.4475 8.55228 15.9998 8 15.9998ZM8 15.9998L8.00707 12M8 16.9998L8.00707 17.0069M20 5C20 6.10457 19.1046 7 18 7C16.8954 7 16 6.10457 16 5C16 3.89543 16.8954 3 18 3C19.1046 3 20 3.89543 20 5ZM12 16.9998C12 19.209 10.2091 20.9998 8 20.9998C5.79086 20.9998 4 19.209 4 16.9998C4 15.9854 4.37764 15.0591 5 14.354L5 6C5 4.34315 6.34315 3 8 3C9.65685 3 11 4.34315 11 6V14.354C11.6224 15.0591 12 15.9854 12 16.9998Z" stroke="#000000" stroke-width="2" stroke-linecap="round" stroke-linejoin="round"/>
</svg>